<svg xmlns="http://www.w3.org/2000/svg" xmlns:xlink="http://www.w3.org/1999/xlink" width="921px" height="401px" version="1.1"><defs/><g transform="translate(0.5,0.5)"><rect x="80" y="0" width="80" height="80" fill="#000000" stroke="#cccccc" pointer-events="none"/><rect x="0" y="80" width="80" height="80" fill="#000000" stroke="#cccccc" pointer-events="none"/><rect x="0" y="0" width="80" height="80" fill="#ffffff" stroke="#cccccc" pointer-events="none"/><rect x="80" y="80" width="80" height="80" fill="#ffffff" stroke="#cccccc" pointer-events="none"/><rect x="300" y="0" width="80" height="80" fill="#000000" stroke="#cccccc" pointer-events="none"/><rect x="220" y="80" width="80" height="80" fill="#000000" stroke="#cccccc" pointer-events="none"/><rect x="220" y="0" width="80" height="80" fill="#ffffff" stroke="#cccccc" pointer-events="none"/><rect x="300" y="80" width="80" height="80" fill="#ffffff" stroke="#cccccc" pointer-events="none"/><rect x="380" y="0" width="80" height="80" fill="#000000" stroke="#cccccc" pointer-events="none"/><rect x="380" y="80" width="80" height="80" fill="#ffffff" stroke="#cccccc" pointer-events="none"/><rect x="600" y="0" width="80" height="80" fill="#ffffff" stroke="#cccccc" pointer-events="none"/><rect x="520" y="80" width="80" height="80" fill="#000000" stroke="#cccccc" pointer-events="none"/><rect x="520" y="0" width="80" height="80" fill="#ffffff" stroke="#cccccc" pointer-events="none"/><rect x="600" y="80" width="80" height="80" fill="#000000" stroke="#cccccc" pointer-events="none"/><rect x="680" y="0" width="80" height="80" fill="#000000" stroke="#cccccc" pointer-events="none"/><rect x="680" y="80" width="80" height="80" fill="#ffffff" stroke="#cccccc" pointer-events="none"/><rect x="760" y="0" width="80" height="80" fill="#000000" stroke="#cccccc" pointer-events="none"/><rect x="840" y="0" width="80" height="80" fill="#000000" stroke="#cccccc" pointer-events="none"/><rect x="760" y="80" width="80" height="80" fill="#ffffff" stroke="#cccccc" pointer-events="none"/><rect x="840" y="80" width="80" height="80" fill="#ffffff" stroke="#cccccc" pointer-events="none"/><rect x="600" y="160" width="80" height="80" fill="#ffffff" stroke="#cccccc" pointer-events="none"/><rect x="520" y="240" width="80" height="80" fill="#000000" stroke="#cccccc" pointer-events="none"/><rect x="520" y="160" width="80" height="80" fill="#ffffff" stroke="#cccccc" pointer-events="none"/><rect x="600" y="240" width="80" height="80" fill="#000000" stroke="#cccccc" pointer-events="none"/><rect x="680" y="160" width="80" height="80" fill="#000000" stroke="#cccccc" pointer-events="none"/><rect x="680" y="240" width="80" height="80" fill="#ffffff" stroke="#cccccc" pointer-events="none"/><rect x="760" y="160" width="80" height="80" fill="#000000" stroke="#cccccc" pointer-events="none"/><rect x="840" y="160" width="80" height="80" fill="#000000" stroke="#cccccc" pointer-events="none"/><rect x="760" y="240" width="80" height="80" fill="#ffffff" stroke="#cccccc" pointer-events="none"/><rect x="840" y="240" width="80" height="80" fill="#ffffff" stroke="#cccccc" pointer-events="none"/><rect x="300" y="160" width="80" height="80" fill="#000000" stroke="#cccccc" pointer-events="none"/><rect x="220" y="160" width="80" height="80" fill="#ffffff" stroke="#cccccc" pointer-events="none"/><rect x="380" y="160" width="80" height="80" fill="#000000" stroke="#cccccc" pointer-events="none"/><rect x="520" y="320" width="80" height="80" fill="#ffffff" stroke="#cccccc" pointer-events="none"/><rect x="600" y="320" width="80" height="80" fill="#ffffff" stroke="#cccccc" pointer-events="none"/><rect x="680" y="320" width="80" height="80" fill="#000000" stroke="#cccccc" pointer-events="none"/><rect x="760" y="320" width="80" height="80" fill="#000000" stroke="#cccccc" pointer-events="none"/><rect x="840" y="320" width="80" height="80" fill="#000000" stroke="#cccccc" pointer-events="none"/></g></svg>